<?xml version="1.0" encoding="utf-8"?>
<!-- Generator: Adobe Illustrator 24.0.3, SVG Export Plug-In . SVG Version: 6.00 Build 0)  -->
<svg version="1.1" id="Layer_1" xmlns="http://www.w3.org/2000/svg" xmlns:xlink="http://www.w3.org/1999/xlink" x="0px" y="0px"
	 viewBox="0 0 33 32" style="enable-background:new 0 0 33 32;" xml:space="preserve">
<style type="text/css">
	.st0{fill:url(#SVGID_1_);}
	.st1{fill:#ED197A;}
</style>
<g>
	<g>
		
			<linearGradient id="SVGID_1_" gradientUnits="userSpaceOnUse" x1="-621.0387" y1="296.3747" x2="-621.0449" y2="296.3762" gradientTransform="matrix(147.4821 7.7292 7.7292 -147.4821 89095.7891 48155.2383)">
			<stop  offset="0" style="stop-color:#FFFFFF"/>
			<stop  offset="1" style="stop-color:#ED197A"/>
		</linearGradient>
		<path class="st0" d="M-203.7-344.8c-0.3,0-0.5-0.1-0.7-0.3c-0.4-0.4-0.4-1.1,0-1.6l5.4-5.4l-0.6-8.6l-8.6-0.6l-5.4,5.4
			c-0.4,0.4-1.1,0.4-1.6,0c-0.4-0.4-0.4-1.1,0-1.6l5.4-5.4c0.5-0.5,1.1-0.7,1.8-0.7l9.4,0.7c0.6,0,1.1,0.5,1.1,1.1l0.7,9.4
			c0,0.7-0.2,1.3-0.7,1.8l-5.4,5.4C-203-344.9-203.4-344.8-203.7-344.8z"/>
	</g>
	<path class="st1" d="M-214.7-334.3C-214.7-334.3-214.7-334.3-214.7-334.3l-9.5-0.7c-0.6,0-1.1-0.5-1.1-1.1l-0.7-9.4
		c0-0.7,0.2-1.3,0.7-1.8l5.4-5.4c0.4-0.4,1.1-0.4,1.6,0c0.4,0.4,0.4,1.1,0,1.6l-5.4,5.4l0.6,8.6l8.6,0.6l5.4-5.4
		c0.4-0.4,1.1-0.4,1.6,0c0.4,0.4,0.4,1.1,0,1.6l-5.4,5.4C-213.4-334.5-214.1-334.3-214.7-334.3z M-223.1-336.3L-223.1-336.3
		L-223.1-336.3z"/>
	<path class="st1" d="M-210.2-349.1c-0.3,0-0.5-0.1-0.7-0.3c-0.4-0.4-0.5-1.1,0-1.6l2.5-2.6c0.4-0.4,1.1-0.5,1.6,0
		c0.4,0.4,0.5,1.1,0,1.6l-2.5,2.6C-209.6-349.2-209.9-349.1-210.2-349.1z"/>
	<path class="st1" d="M-216.3-343c-0.3,0-0.5-0.1-0.7-0.3c-0.4-0.4-0.4-1.1,0-1.6l2.6-2.6c0.4-0.4,1.1-0.4,1.6,0
		c0.4,0.4,0.4,1.1,0,1.6l-2.6,2.6C-215.6-343.1-215.9-343-216.3-343z"/>
</g>
</svg>
