<?xml version="1.0" encoding="utf-8"?>
<!-- Generator: Adobe Illustrator 24.0.3, SVG Export Plug-In . SVG Version: 6.00 Build 0)  -->
<svg version="1.1" id="Layer_1" xmlns="http://www.w3.org/2000/svg" xmlns:xlink="http://www.w3.org/1999/xlink" x="0px" y="0px"
	 viewBox="0 0 33 32" style="enable-background:new 0 0 33 32;" xml:space="preserve">
<style type="text/css">
	.st0{fill:url(#SVGID_1_);}
	.st1{fill:#FFFFFF;}
</style>
<g>
	<g>
		
			<linearGradient id="SVGID_1_" gradientUnits="userSpaceOnUse" x1="-1561.4955" y1="366.0774" x2="-1561.5017" y2="366.076" gradientTransform="matrix(147.4821 7.7292 -7.7292 147.4821 233144 -41910.8945)">
			<stop  offset="0" style="stop-color:#E390BB"/>
			<stop  offset="1" style="stop-color:#FFFFFF"/>
		</linearGradient>
		<path class="st0" d="M23.8,20.2c-0.3,0-0.5-0.1-0.7-0.3c-0.4-0.4-0.4-1.1,0-1.6l5.4-5.4l-0.6-8.6l-8.6-0.6l-5.4,5.4
			c-0.4,0.4-1.1,0.4-1.6,0c-0.4-0.4-0.4-1.1,0-1.6l5.4-5.4c0.5-0.5,1.1-0.7,1.8-0.7l9.4,0.7c0.6,0,1.1,0.5,1.1,1.1l0.7,9.4
			c0,0.7-0.2,1.3-0.7,1.8l-5.4,5.4C24.4,20.1,24.1,20.2,23.8,20.2z"/>
	</g>
	<path class="st1" d="M12.7,30.7L12.7,30.7l-9.5-0.7c-0.6,0-1.1-0.5-1.1-1.1l-0.7-9.4c0-0.7,0.2-1.3,0.7-1.8l5.4-5.4
		c0.4-0.4,1.1-0.4,1.6,0c0.4,0.4,0.4,1.1,0,1.6l-5.4,5.4l0.6,8.6l8.6,0.6l5.4-5.4c0.4-0.4,1.1-0.4,1.6,0c0.4,0.4,0.4,1.1,0,1.6
		l-5.4,5.4C14,30.5,13.4,30.7,12.7,30.7z M4.4,28.7L4.4,28.7L4.4,28.7z"/>
	<path class="st1" d="M17.2,15.9c-0.3,0-0.5-0.1-0.7-0.3c-0.4-0.4-0.5-1.1,0-1.6l2.5-2.6c0.4-0.4,1.1-0.5,1.6,0
		c0.4,0.4,0.5,1.1,0,1.6l-2.5,2.6C17.9,15.8,17.5,15.9,17.2,15.9z"/>
	<path class="st1" d="M11.2,22c-0.3,0-0.5-0.1-0.7-0.3c-0.4-0.4-0.4-1.1,0-1.6l2.6-2.6c0.4-0.4,1.1-0.4,1.6,0c0.4,0.4,0.4,1.1,0,1.6
		l-2.6,2.6C11.8,21.9,11.5,22,11.2,22z"/>
</g>
</svg>
